M48
INCH
T01C0.0200
T02C0.0600
T03C0.0300
T04C0.0400
T05C0.0450
T06C0.0250
T07C0.0320
%
T01
X+037000Y-000750
X+038000Y-005500
X+022500Y-003250
X+019750Y+003250
X+017500Y+006500
X+018500Y+006500
X+018750Y+000250
X+027750Y-009250
X+018000Y+005500
X+026750Y+005250
X+028750Y+000500
X+026750Y+000500
X+023750Y-005250
X+010250Y-003250
X+013750Y-001250
X+009250Y+004250
X+008000Y+003250
X+030500Y+015250
X+010000Y+012500
X+008000Y+012500
X+007000Y+012500
X+026500Y+006250
X+030000Y+006250
X+022750Y+010000
X+037750Y+009000
X+031000Y+014750
X+006000Y+015250
X+009500Y+015500
X+026250Y+015750
X+021750Y+013250
X-019750Y+015000
X-026250Y+014000
X-026250Y+015000
X-024250Y+015000
X-021000Y+005750
X-015750Y+014500
X-017250Y+014500
X-018750Y+011000
X-022250Y+011000
X-023750Y+014500
X-021750Y+014500
X-018250Y+009750
X-025500Y+009500
X-009750Y+011250
X-010750Y+011250
X-014250Y+009250
X+002250Y+011750
X-003500Y+007750
X-025000Y-003750
X-007000Y-002750
X-001000Y-003500
X-021500Y+003250
X-003250Y-003750
X+019000Y+011500
X+017250Y+013250
X-011750Y+007250
X-017250Y+007250
X-010250Y+007250
X+012000Y+005750
X+022750Y+005000
X+006000Y+001250
X-022000Y+012750
X-008250Y-002250
X+033750Y+011750
X+018500Y+013500
T02
X+037165Y-016653
X+035165Y-016653
X+027244Y-016692
X+025244Y-016692
X+017204Y-016692
X+015204Y-016692
X+007322Y-016614
X+005322Y-016614
X-005228Y-016692
X-003228Y-016692
X-010590Y-016692
X-012590Y-016692
X-023377Y-016653
X-021377Y-016653
X+035905Y-004094
X+030984Y-006062
X+035905Y-006062
X+030984Y-004094
X+026259Y-003976
X+021338Y-005944
X+026259Y-005944
X+021338Y-003976
X+016377Y-003976
X+011456Y-005944
X+016377Y-005944
X+011456Y-003976
X+006141Y-003622
X+001220Y-005590
X+006141Y-005590
X+001220Y-003622
X-002125Y-007283
X-007047Y-009251
X-002125Y-009251
X-007047Y-007283
X-002322Y+008464
X-007244Y+006496
X-002322Y+006496
X-007244Y+008464
X-015196Y-007244
X-020118Y-009212
X-015196Y-009212
X-020118Y-007244
X-015314Y+008543
X-020236Y+006574
X-015314Y+006574
X-020236Y+008543
X+031023Y-008267
X+031023Y-012992
X+030236Y-010629
X+035826Y-012992
X+035826Y-008267
X+021181Y-008346
X+021181Y-013070
X+020393Y-010708
X+025984Y-013070
X+025984Y-008346
X+011181Y-008267
X+011181Y-012992
X+010393Y-010629
X+015984Y-012992
X+015984Y-008267
X+001259Y-008346
X+001259Y-013070
X+000472Y-010708
X+006062Y-013070
X+006062Y-008346
X-023976Y+004724
X-028700Y+004724
X-026338Y+005511
X-028700Y-000078
X-023976Y-000078
X-024055Y-006496
X-028779Y-006496
X-026417Y-005708
X-028779Y-011299
X-024055Y-011299
T03
X+027598Y+005078
X+027598Y+004078
X+027598Y+003078
X+027598Y+002078
X+027598Y+001078
X+027598Y+000078
X+027598Y-000921
X+030598Y-000921
X+030598Y+000078
X+030598Y+001078
X+030598Y+002078
X+030598Y+003078
X+030598Y+004078
X+030598Y+005078
X+032007Y+001929
X+032007Y+000929
X+032007Y-000070
X+032007Y-001070
X+035007Y-001070
X+035007Y-000070
X+035007Y+000929
X+035007Y+001929
X+022047Y+001811
X+022047Y+000811
X+022047Y-000188
X+022047Y-001188
X+025047Y-001188
X+025047Y-000188
X+025047Y+000811
X+025047Y+001811
X+012283Y+001692
X+012283Y+000692
X+012283Y-000307
X+012283Y-001307
X+015283Y-001307
X+015283Y-000307
X+015283Y+000692
X+015283Y+001692
X+007362Y+004803
X+007362Y+003803
X+007362Y+002803
X+007362Y+001803
X+007362Y+000803
X+007362Y-000196
X+007362Y-001196
X+010362Y-001196
X+010362Y-000196
X+010362Y+000803
X+010362Y+001803
X+010362Y+002803
X+010362Y+003803
X+010362Y+004803
X+002559Y+001811
X+002559Y+000811
X+002559Y-000188
X+002559Y-001188
X+005559Y-001188
X+005559Y-000188
X+005559Y+000811
X+005559Y+001811
X+038582Y-002755
X+038582Y-006755
X+037322Y-002716
X+037322Y-006716
X+036456Y-001456
X+036456Y+002543
X+037559Y-001417
X+037559Y+002582
X+035590Y-002283
X+031590Y-002283
X+029212Y-002637
X+029212Y-006637
X+027716Y-002559
X+027716Y-006559
X+026062Y+002519
X+026062Y-001480
X+019842Y+002401
X+019842Y-001598
X+025826Y-002480
X+021826Y-002480
X+020078Y-002755
X+020078Y-006755
X+018464Y-002755
X+018464Y-006755
X+016299Y+002362
X+016299Y-001637
X+018031Y+002755
X+018031Y-001244
X+015708Y-002598
X+011708Y-002598
X+009448Y-002637
X+009448Y-006637
X+007834Y-002598
X+007834Y-006598
X+001102Y+002283
X+001102Y-001716
X-000275Y+002322
X-000275Y-001677
X+006023Y-002244
X+002023Y-002244
X+036771Y+004488
X+037771Y+004488
X+035157Y+004055
X+035157Y+005055
X+021196Y+004055
X+020196Y+004055
X+026141Y+004606
X+026141Y+003606
X+016259Y+004173
X+017259Y+004173
X+011338Y+004409
X+011338Y+003409
X+000842Y+004015
X-000157Y+004015
X+006102Y+003527
X+006102Y+004527
X-018464Y-004763
X-017464Y-004763
X-016464Y-004763
X-016464Y-001763
X-017464Y-001763
X-018464Y-001763
X-009732Y-001921
X-010732Y-001921
X-011732Y-001921
X-011732Y-004921
X-010732Y-004921
X-009732Y-004921
X-003314Y-001645
X-004314Y-001645
X-005314Y-001645
X-005314Y-004645
X-004314Y-004645
X-003314Y-004645
X+021755Y+006220
X+022255Y+006720
X+022755Y+006220
X+013527Y+006456
X+014027Y+006956
X+014527Y+006456
X+003751Y+005877
X+004251Y+006377
X+004751Y+005877
X-021759Y-002665
X-021259Y-002165
X-020759Y-002665
X-021732Y-005196
X-021232Y-004696
X-020732Y-005196
X+024669Y+006220
X+025169Y+006720
X+025669Y+006220
X+022314Y+010700
X+023314Y+010700
X+024314Y+010700
X+025314Y+010700
X+026314Y+010700
X+027314Y+010700
X+028314Y+010700
X+029314Y+010700
X+030314Y+010700
X+031314Y+010700
X+032314Y+010700
X+033314Y+010700
X+034314Y+010700
X+035314Y+010700
X+035314Y+013700
X+034314Y+013700
X+033314Y+013700
X+032314Y+013700
X+031314Y+013700
X+030314Y+013700
X+029314Y+013700
X+028314Y+013700
X+027314Y+013700
X+026314Y+013700
X+025314Y+013700
X+024314Y+013700
X+022322Y+013700
X+032913Y+008937
X+030913Y+008937
X+029251Y+008464
X+029251Y+007464
X+027755Y+007385
X+027755Y+008385
X+022417Y+008031
X+026417Y+008031
X+020984Y+009055
X+016984Y+009055
X+020905Y+007874
X+016905Y+007874
X+022417Y+009133
X+026417Y+009133
X-013275Y+013393
X-014275Y+013393
X-015275Y+013393
X-016275Y+013393
X-017275Y+013393
X-018275Y+013393
X-019275Y+013393
X-020275Y+013393
X-021275Y+013393
X-022275Y+013393
X-023275Y+013393
X-024275Y+013393
X-025275Y+013393
X-026275Y+013393
X-026275Y+010393
X-025275Y+010393
X-024275Y+010393
X-023275Y+010393
X-022275Y+010393
X-021275Y+010393
X-020275Y+010393
X-019275Y+010393
X-018275Y+010393
X-017275Y+010393
X-016275Y+010393
X-015275Y+010393
X-013283Y+010393
X-022677Y+014842
X-020677Y+014842
X-023779Y+009149
X-023779Y+008149
X-022244Y+009188
X-022244Y+008188
X-015196Y-011141
X-015196Y-012141
X-007834Y-012181
X-007834Y-011181
X-015933Y+001106
X-015933Y+005106
X-013000Y-004500
X-013000Y-008500
X-013905Y-014078
X-009905Y-014078
X-013000Y-001000
X-009000Y-001000
X-019500Y-001000
X-019500Y+003000
X-029173Y-016535
X-025173Y-016535
X-007035Y-018039
X-007035Y-014039
X-001000Y-010629
X-001000Y-014629
X-010590Y-010023
X-010590Y-006023
X-001000Y-004500
X-001000Y-008500
X-009921Y+001157
X-009921Y+005157
X-008700Y+001181
X-008700Y+005181
X-014562Y+001145
X-014562Y+005145
X-015500Y-005500
X-019500Y-005500
X-012669Y+001145
X-012669Y+005145
X-025133Y-017401
X-029133Y-017401
X-007480Y+005181
X-007480Y+001181
X-001692Y-001692
X-001692Y+002307
X-008500Y-004500
X-008500Y-008500
X-011248Y+001145
X-011248Y+005145
X+032374Y+006299
X+032874Y+006799
X+033374Y+006299
T04
X+014244Y+010787
X+013244Y+010787
X+012244Y+010787
X+011244Y+010787
X+010244Y+010787
X+009244Y+010787
X+008244Y+010787
X+007244Y+010787
X-012590Y-011968
X-011590Y-011968
X-010590Y-011968
X-005251Y-011850
X-004251Y-011850
X-003251Y-011850
X+032913Y-015078
X+028913Y-015078
X+019307Y-015236
X+023307Y-015236
X+013385Y-015708
X+009385Y-015708
X+003818Y-015393
X-000181Y-015393
X-021614Y+000133
X-021614Y+004133
X-029133Y-014724
X-025133Y-014724
X+004685Y+012086
X+004685Y+008086
X+003291Y+008070
X-000708Y+008070
X+004228Y+013779
X+003228Y+013779
X+006763Y+007362
X+007763Y+007362
X+008763Y+007362
X+009763Y+007362
X+009763Y+008362
X+008763Y+008362
X+007763Y+008362
X+006763Y+008362
X+001637Y+014228
X+000637Y+014228
X-000362Y+014228
X-001362Y+014228
X-002362Y+014228
X-003362Y+014228
X-004362Y+014228
X-005362Y+014228
X-006362Y+014228
X-007362Y+014228
X-007362Y+013228
X-006362Y+013228
X-005362Y+013228
X-004362Y+013228
X-003362Y+013228
X-002362Y+013228
X-001362Y+013228
X-000362Y+013228
X+000637Y+013228
X+001637Y+013228
X+001102Y+010787
X+000102Y+010787
X-000897Y+010787
X-001897Y+010787
X-002897Y+010787
X-003897Y+010787
X-004897Y+010787
X-005897Y+010787
X-028661Y+013307
X-028661Y+012307
X-028661Y+011307
X-028661Y+010307
X-027661Y+010307
X-027661Y+011307
X-027661Y+012307
X-027661Y+013307
X+037952Y+010787
X+037952Y+011787
X+037952Y+012787
X+037952Y+013787
X+036952Y+013787
X+036952Y+012787
X+036952Y+011787
X+036952Y+010787
X+006535Y+013251
X+007535Y+013251
X+008535Y+013251
X+009535Y+013251
X+010535Y+013251
X+011535Y+013251
X+012535Y+013251
X+013535Y+013251
X+014535Y+013251
X+015535Y+013251
X+015535Y+014251
X+014535Y+014251
X+013535Y+014251
X+012535Y+014251
X+011535Y+014251
X+010535Y+014251
X+009535Y+014251
X+008535Y+014251
X+007535Y+014251
X+006535Y+014251
X+033992Y+003582
X+032992Y+003582
X+024110Y+003543
X+023110Y+003543
X+014307Y+003543
X+013307Y+003543
X+004582Y+003503
X+003582Y+003503
X-004157Y-000078
X-005157Y-000078
X-017503Y-000039
X-018503Y-000039
T05
X-018299Y-014614
X-016299Y-016614
X-018299Y-016614
X-016299Y-014614
T06
X+023314Y+013700
X-014275Y+010393
T07
X+020551Y+011181
X+017992Y+011220
X+020551Y+012992
X+017992Y+012992
X-011614Y+013110
X-009055Y+013070
X-011614Y+011299
X-009055Y+011299
M30
