M48
INCH
T01C0.0200
T02C0.0600
T03C0.0300
T04C0.0400
T05C0.0250
T06C0.1181
T07C0.0450
%
T01
X-003500Y-005750
X+023000Y-007250
X-000250Y-011250
X+016500Y-008000
X+021250Y-008500
X+024500Y-008500
X-005000Y-008750
X-011250Y-008250
X+004500Y-005000
X+017750Y-009750
X+011250Y-014750
X+010377Y-014732
X+019750Y-026500
T02
X+021700Y-029645
X+023700Y-029645
X+012055Y-029645
X+014055Y-029645
X+022952Y-025826
X+022952Y-021102
X+023740Y-023464
X+018149Y-021102
X+018149Y-025826
X+013188Y-025944
X+013188Y-021220
X+013976Y-023582
X+008385Y-021220
X+008385Y-025944
X+022244Y-016968
X+017322Y-018937
X+022244Y-018937
X+017322Y-016968
X+013740Y-016968
X+008818Y-018937
X+013740Y-018937
X+008818Y-016968
X+002488Y-029606
X+004488Y-029606
X-006881Y-029488
X-004881Y-029488
X-004370Y-023464
X+000551Y-021496
X-004370Y-021496
X+000551Y-023464
X+000629Y-007952
X-004291Y-009921
X+000629Y-009921
X-004291Y-007952
T03
X+013858Y-008740
X+013858Y-009740
X+013858Y-010740
X+013858Y-011740
X+013858Y-012740
X+013858Y-013740
X+013858Y-014740
X+016858Y-014740
X+016858Y-013740
X+016858Y-012740
X+016858Y-011740
X+016858Y-010740
X+016858Y-009740
X+016858Y-008740
X+018188Y-011692
X+018188Y-012692
X+018188Y-013692
X+018188Y-014692
X+021188Y-014692
X+021188Y-013692
X+021188Y-012692
X+021188Y-011692
X+009724Y-011732
X+009724Y-012732
X+009724Y-013732
X+009724Y-014732
X+012724Y-014732
X+012724Y-013732
X+012724Y-012732
X+012724Y-011732
X+023574Y-003700
X+022574Y-003700
X+021574Y-003700
X+020574Y-003700
X+019574Y-003700
X+018574Y-003700
X+017574Y-003700
X+016574Y-003700
X+015574Y-003700
X+014574Y-003700
X+013574Y-003700
X+012574Y-003700
X+011574Y-003700
X+010574Y-003700
X+010574Y-006700
X+011574Y-006700
X+012574Y-006700
X+013574Y-006700
X+014574Y-006700
X+015574Y-006700
X+016574Y-006700
X+017574Y-006700
X+018574Y-006700
X+019574Y-006700
X+020574Y-006700
X+021574Y-006700
X+023566Y-006700
X+004937Y-003622
X+003937Y-003622
X+002937Y-003622
X+001937Y-003622
X+000937Y-003622
X-000062Y-003622
X-001062Y-003622
X-002062Y-003622
X-003062Y-003622
X-004062Y-003622
X-005062Y-003622
X-006062Y-003622
X-007062Y-003622
X-008062Y-003622
X-008062Y-006622
X-007062Y-006622
X-006062Y-006622
X-005062Y-006622
X-004062Y-006622
X-003062Y-006622
X-002062Y-006622
X-001062Y-006622
X-000062Y-006622
X+000937Y-006622
X+001937Y-006622
X+002937Y-006622
X+004929Y-006622
X-003031Y-020677
X-002031Y-020677
X-001031Y-020677
X-001031Y-017677
X-002031Y-017677
X-003031Y-017677
X+004362Y-017708
X+003362Y-017708
X+002362Y-017708
X+002362Y-020708
X+003362Y-020708
X+004362Y-020708
X+015401Y-000984
X+017401Y-000984
X-006685Y-001023
X-004685Y-001023
X+019133Y-000551
X+019133Y-001551
X+013582Y-000472
X+013582Y-001472
X-003110Y-000511
X-003110Y-001511
X-008267Y-000511
X-008267Y-001511
X-008346Y-026850
X-004346Y-026850
X-004291Y-024921
X-008291Y-024921
X+005535Y-022047
X+001535Y-022047
X+001496Y-023779
X+005496Y-023779
X-001062Y-026354
X-001062Y-025354
X+025039Y-014960
X+024539Y-014460
X+025039Y-013960
X+006641Y-014988
X+006141Y-014488
X+006641Y-013988
X+026771Y-008267
X+026271Y-008767
X+025771Y-008267
X+022795Y-011929
X+023795Y-011929
X+022795Y-014921
X+022795Y-013921
X+007952Y-012362
X+007952Y-011362
X+008070Y-014055
X+008070Y-015055
X+007952Y-009039
X+007952Y-010039
X-008464Y-017755
X-004464Y-017755
X+021500Y-010000
X+025500Y-010000
X+017500Y-016000
X+021500Y-016000
X+025500Y-020000
X+025500Y-016000
X+017500Y-003000
X+021500Y-003000
X+025500Y-021000
X+025500Y-025000
X+005000Y-010000
X+005000Y-014000
X+008000Y-007000
X+008000Y-003000
X+007000Y-003000
X+007000Y-007000
X+004000Y-014000
X+004000Y-010000
X+007000Y-016000
X+011000Y-016000
X+006000Y-007000
X+006000Y-003000
X+011000Y-002000
X+007000Y-002000
X+002000Y-002000
X+006000Y-002000
X+026000Y-011000
X+026000Y-015000
X+006000Y-009000
X+002000Y-009000
X-005500Y-010000
X-005500Y-014000
X+002000Y-010000
X+002000Y-014000
X+003000Y-010000
X+003000Y-014000
X+009500Y-006000
X+009500Y-010000
X+008000Y-008000
X+004000Y-008000
X-006500Y-014000
X-006500Y-010000
X+001000Y-014000
X-003000Y-014000
X+001000Y-013000
X-003000Y-013000
X-007500Y-013000
X-007500Y-009000
X-008500Y-013000
X-008500Y-009000
X-009500Y-013000
X-009500Y-009000
T04
X+015905Y-028188
X+019905Y-028188
X+006377Y-028228
X+010377Y-028228
X+020133Y-009330
X+019133Y-009330
X+011629Y-009409
X+010629Y-009409
X+004322Y-025748
X+003322Y-025748
X+002322Y-025748
X+004425Y-015748
X+003425Y-015748
X+001590Y-015748
X+000590Y-015748
X-001086Y-015826
X-002086Y-015826
X-003606Y-015708
X-004606Y-015708
X-006165Y-015708
X-007165Y-015708
X-009590Y-006543
X-009590Y-005543
X-009590Y-004543
X-009590Y-003543
X-010590Y-003543
X-010590Y-004543
X-010590Y-005543
X-010590Y-006543
X+026496Y-006582
X+026496Y-005582
X+026496Y-004582
X+026496Y-003582
X+025496Y-003582
X+025496Y-004582
X+025496Y-005582
X+025496Y-006582
X+020480Y-002023
X+021480Y-002023
X+022480Y-002023
X+023480Y-002023
X+023480Y-001023
X+022480Y-001023
X+021480Y-001023
X+020480Y-001023
X-001354Y-000787
X-000354Y-000787
X+001039Y-000669
X+005039Y-000669
X+006157Y-000748
X+010157Y-000748
T05
X+022574Y-006700
X+003937Y-006622
T06
X+025984Y-029960
X+026062Y-001535
X-010236Y-001535
X-010196Y-029960
T07
X-008346Y-021385
X-010346Y-023385
X-010346Y-021385
X-008346Y-023385
M30
